<?xml version="1.0" standalone="no"?><!DOCTYPE svg PUBLIC "-//W3C//DTD SVG 1.1//EN" "http://www.w3.org/Graphics/SVG/1.1/DTD/svg11.dtd"><svg t="1500820507754" class="icon" style="" viewBox="0 0 1024 1024" version="1.1" xmlns="http://www.w3.org/2000/svg" p-id="713" xmlns:xlink="http://www.w3.org/1999/xlink" width="16" height="16"><defs><style type="text/css"></style></defs><path d="M511.812 929.397c-230.391 0-417.826-187.434-417.826-417.821 0-230.391 187.434-417.826 417.826-417.826 230.386 0 417.821 187.434 417.821 417.826 0 230.386-187.436 417.821-417.821 417.821z m0-791.915c-206.277 0-374.092 167.815-374.092 374.093 0 206.273 167.815 374.089 374.092 374.089 206.273 0 374.089-167.815 374.089-374.089 0-206.277-167.815-374.093-374.089-374.093z" fill="#D2D6DE" p-id="714"></path><path d="M589.938 510.195L425.121 675.012l30.521 30.521 195.339-195.339-195.339-195.339-30.521 30.521z" fill="#D2D6DE" p-id="715"></path></svg>